<?xml version="1.0" encoding="UTF-8"?><svg id="Vrstva_1" xmlns="http://www.w3.org/2000/svg" viewBox="0 0 784 143"><defs><style>.cls-1{fill:#03223c;}.cls-2{fill:#fd3641;}.cls-3{fill:#83929f;}.cls-4{fill:#fd3842;}.cls-5{fill:#03233c;}.cls-6{fill:#9aa7b2;}.cls-7{fill:#fd3843;}.cls-8{fill:#7f8f9c;}.cls-9{fill:#01213b;}</style></defs><path class="cls-4" d="M256.5,127.5h-3.5c-5.04-1.73-8.45-5.33-8.45-11.02v-54.46c.02-6.04,4.46-10.53,10.22-10.63s10.47,4.29,10.47,10.25l.03,54.82c0,5.79-3.59,9.51-8.78,11.04Z"/><path class="cls-4" d="M321.5,127.5h-3.5c-5.05-1.73-8.45-5.33-8.45-11.02v-54.47c.01-6.04,4.44-10.52,10.23-10.63,5.47-.1,10.46,4.28,10.46,10.25l.04,54.82c0,5.78-3.6,9.5-8.78,11.04Z"/><path class="cls-7" d="M289,127.5h-3.5c-5.03-1.72-8.47-5.36-8.46-11l.04-32.01c0-5.88,4.6-10.28,10.2-10.37,5.33-.09,10.43,4.18,10.44,10l.07,32.36c.01,5.74-3.62,9.51-8.79,11.02Z"/><path class="cls-5" d="M6.01,125v-1c-.07.24.5-.57.5-1.16,0-13.39,0-33.28,0-46.67,0-.59-.57-1.4-.5-1.16v-2c1.07-5.2,2.01-11.13,4.24-16.29,4.56-10.51,13.05-18.05,24.09-21.29s22.46-3.1,33.29.36c18.43,5.89,26.73,22.69,26.94,41.26v47.71s-20.81,0-20.81,0l-.05-47.71c-.01-10.06-4.54-19.98-14.77-23.03-10.8-3.22-24.46-.63-29.38,10.99-1.58,3.74-2.47,7.78-2.47,12.02l-.04,47.73-21.05.26Z"/><path class="cls-8" d="M6.01,124v-49c-.07-.24.5.57.5,1.16,0,13.39,0,33.28,0,46.67,0,.59-.57,1.4-.5,1.16Z"/><path class="cls-5" d="M180.82,112.99c-10.84,13.33-28.2,16.8-44.25,11.98s-26.83-16.53-30.35-32.19c-5.3-23.57,4.87-48.13,28.47-56.52,11.51-4.09,23.87-4.19,35.44-.37,18.95,6.25,30.22,23.99,30.23,43.63l.02,45.22-19.36.03-.2-11.78ZM177.59,91.52c2.96-7.53,2.89-15.86-.16-23.31-5.5-13.44-20.69-18.06-33.73-14.09-7.5,2.29-13.26,7.72-15.95,15.09-5.18,14.19.06,31.9,15.82,36.75,13.2,4.07,28.57-.61,34.02-14.44Z"/><path class="cls-2" d="M354.5,127.5h-3.87c-4.01-1.74-8.1-4.54-8.1-9.5v-24.01c.01-5.73,5.47-9.71,10.69-9.45,5.14.25,9.81,4.37,9.81,9.95v23.04c0,5.25-4.07,8.44-8.53,9.98Z"/><path class="cls-2" d="M363.05,65.81c0,5.81-4.69,9.95-9.82,10.18s-10.68-3.76-10.69-9.47l-.04-23.54c-.01-5.67,5.07-9.8,10.26-9.79,5.54.01,10.31,4.45,10.31,10.3l-.02,22.33Z"/><path class="cls-1" d="M784,73.5v14c-.23.32-.63,1.18-.74,1.78-2.7,15.06-12.28,27.6-26.43,33.56-13.63,5.75-28.8,5.63-42.31-.42-22.01-9.86-30.86-34.69-24.16-57.12,8.12-27.19,38.01-38,63.54-29.17,16.92,5.85,27.3,20.2,30.1,37.37ZM761.22,90.81c5.19-14.33-.32-32.17-16.27-36.79-13.12-3.8-28.1.88-33.52,14.34-5.85,14.51-.42,33.25,16.39,37.87,13.43,3.69,28.38-1.53,33.41-15.41Z"/><path class="cls-6" d="M628.5,5c.03.15.07.37.07.5h-20.57v-.5h20.5Z"/><path class="cls-1" d="M628.58,5.5l.26,29.56,46.67.35-.04,19.4h-46.65s.13,38.64.13,38.64c.01,4.35,2.14,8.32,5.1,10.94,3.88,2.83,8.36,3.2,13.01,2.79,11.3-1,13.34-10.92,12.8-20.92h20.6c1.03,16.37-4.57,32.26-20.53,38.04-10.64,3.85-22.2,3.76-32.68-.55-12.95-5.33-19.23-18.27-19.23-31.82V5.5s20.57,0,20.57,0Z"/><path class="cls-5" d="M475.06,35.43l20.82-.04v48.6c-.48,17.49-8.19,33.44-25.21,39.7-12.11,4.46-25.31,4.51-37.46.2-17.15-6.09-25.07-21.82-25.65-39.41v-49.08s20.82,0,20.82,0v47.56c.16,10.58,4.53,20.46,15.34,23.34,5.18,1.38,10.5,1.39,15.68.08,11.03-2.79,15.45-12.69,15.67-23.42v-47.54Z"/><path class="cls-7" d="M588.98,106.78c5.92-1.78,11.54,1.63,13.05,7.28,1.39,5.2-1.61,10.8-7.1,12.49s-11.04-1.35-12.78-6.89c-1.58-5.06,1.01-11.14,6.82-12.89Z"/><polygon class="cls-5" points="578.43 35.44 600.69 35.42 563.47 124.72 540.71 124.76 503.52 35.56 526.2 35.34 552.33 101.68 578.43 35.44"/><path class="cls-3" d="M395.5,5c.02.15.06.37.06.5h-20.59l.03-.5h20.5Z"/><path class="cls-9" d="M395.56,5.5c.34,29.74.17,88.73.2,116.7-6.93,6.01-13.85.76-20.89,2.57l.09-119.27h20.59Z"/><path class="cls-7" d="M224,127.5h-3.5c-5.01-1.71-8.48-5.37-8.46-10.99l.04-21.53c.01-5.86,4.6-10.37,10.19-10.47,5.45-.09,10.42,4.25,10.45,10.1l.11,21.39c.03,5.9-3.36,9.95-8.83,11.49Z"/><path class="cls-4" d="M232.75,65.7c0,6.09-4.99,10.38-10.5,10.3s-10.2-4.6-10.19-10.47l.03-22.04c0-5.84,4.68-10.22,10.2-10.3s10.42,4.16,10.43,9.93l.03,22.59Z"/></svg>